<svg width="1440" height="1075" viewBox="0 0 1440 1075" fill="none" xmlns="http://www.w3.org/2000/svg">
<rect width="1440" height="1075" fill="#222222"/>
<path d="M396.987 302.092C396.987 305.852 396.499 309.245 395.522 312.272C394.595 315.251 393.35 317.888 391.787 320.183C390.225 322.478 388.394 324.431 386.294 326.042C384.194 327.653 382.021 328.972 379.775 329.997C377.529 331.022 375.234 331.779 372.891 332.268C370.596 332.756 368.423 333 366.372 333H292.91V313.957H366.372C370.034 313.957 372.866 312.883 374.868 310.734C376.919 308.586 377.944 305.705 377.944 302.092C377.944 300.334 377.676 298.723 377.139 297.258C376.602 295.793 375.82 294.523 374.795 293.449C373.818 292.375 372.598 291.545 371.133 290.959C369.717 290.373 368.13 290.08 366.372 290.08H322.573C319.497 290.08 316.177 289.543 312.612 288.469C309.048 287.346 305.728 285.563 302.651 283.122C299.624 280.681 297.085 277.482 295.034 273.527C293.032 269.572 292.031 264.738 292.031 259.025C292.031 253.312 293.032 248.503 295.034 244.597C297.085 240.642 299.624 237.443 302.651 235.002C305.728 232.512 309.048 230.729 312.612 229.655C316.177 228.532 319.497 227.971 322.573 227.971H387.393V247.014H322.573C318.96 247.014 316.128 248.112 314.077 250.31C312.075 252.507 311.074 255.412 311.074 259.025C311.074 262.688 312.075 265.593 314.077 267.741C316.128 269.841 318.96 270.891 322.573 270.891H366.372H366.519C368.569 270.939 370.742 271.232 373.037 271.77C375.332 272.258 377.603 273.039 379.849 274.113C382.144 275.188 384.316 276.555 386.367 278.215C388.418 279.826 390.225 281.779 391.787 284.074C393.398 286.369 394.668 289.006 395.596 291.984C396.523 294.963 396.987 298.332 396.987 302.092ZM496.816 306.267C496.816 309.538 496.401 312.492 495.571 315.129C494.741 317.717 493.643 320.012 492.275 322.014C490.908 323.967 489.321 325.651 487.515 327.067C485.708 328.435 483.804 329.558 481.802 330.437C479.849 331.315 477.847 331.975 475.796 332.414C473.794 332.805 471.89 333 470.083 333H435.732C433.096 333 430.215 332.536 427.09 331.608C423.965 330.681 421.06 329.167 418.374 327.067C415.737 324.919 413.516 322.16 411.709 318.791C409.951 315.373 409.072 311.198 409.072 306.267V280.485C409.072 275.603 409.951 271.477 411.709 268.107C413.516 264.689 415.737 261.931 418.374 259.831C421.06 257.683 423.965 256.145 427.09 255.217C430.215 254.289 433.096 253.825 435.732 253.825H470.083C474.966 253.825 479.116 254.704 482.534 256.462C485.952 258.22 488.711 260.441 490.811 263.127C492.91 265.764 494.424 268.645 495.352 271.77C496.328 274.895 496.816 277.8 496.816 280.485V306.267ZM477.773 280.632C477.773 277.995 477.114 276.042 475.796 274.772C474.478 273.503 472.573 272.868 470.083 272.868H435.879C433.34 272.868 431.411 273.527 430.093 274.846C428.774 276.115 428.115 277.995 428.115 280.485V306.267C428.115 308.757 428.774 310.661 430.093 311.979C431.411 313.298 433.34 313.957 435.879 313.957H470.083C472.671 313.957 474.6 313.298 475.869 311.979C477.139 310.661 477.773 308.757 477.773 306.267V280.632ZM600.381 306.267C600.381 308.073 600.161 309.978 599.722 311.979C599.331 313.981 598.696 315.983 597.817 317.985C596.938 319.938 595.791 321.818 594.375 323.625C593.008 325.432 591.323 327.043 589.321 328.459C587.368 329.826 585.098 330.925 582.51 331.755C579.922 332.585 576.992 333 573.721 333H539.37C537.563 333 535.659 332.805 533.657 332.414C531.655 331.975 529.653 331.315 527.651 330.437C525.698 329.558 523.818 328.435 522.012 327.067C520.205 325.651 518.594 323.967 517.178 322.014C515.811 320.012 514.712 317.717 513.882 315.129C513.052 312.492 512.637 309.538 512.637 306.267V220.354H531.68V306.267C531.68 308.61 532.412 310.49 533.877 311.906C535.342 313.273 537.173 313.957 539.37 313.957H573.721C576.113 313.957 577.969 313.249 579.287 311.833C580.654 310.417 581.338 308.562 581.338 306.267V280.485C581.338 278.093 580.63 276.237 579.214 274.919C577.798 273.552 575.967 272.868 573.721 272.868H539.37V253.825H573.721C575.527 253.825 577.432 254.045 579.434 254.484C581.436 254.875 583.413 255.51 585.366 256.389C587.368 257.268 589.272 258.415 591.079 259.831C592.886 261.198 594.473 262.883 595.84 264.885C597.207 266.838 598.306 269.108 599.136 271.696C599.966 274.284 600.381 277.214 600.381 280.485V306.267ZM685.928 272.868H643.081C640.493 272.868 638.54 273.527 637.222 274.846C635.903 276.115 635.244 277.995 635.244 280.485V333H616.201V280.485C616.201 277.214 616.616 274.284 617.446 271.696C618.276 269.108 619.375 266.838 620.742 264.885C622.158 262.883 623.77 261.198 625.576 259.831C627.383 258.415 629.263 257.268 631.216 256.389C633.218 255.51 635.22 254.875 637.222 254.484C639.272 254.045 641.177 253.825 642.935 253.825H685.928V272.868ZM783.413 280.046C783.413 282.683 782.949 285.539 782.021 288.615C781.094 291.643 779.58 294.475 777.48 297.111C775.43 299.699 772.72 301.872 769.351 303.63C766.03 305.388 761.978 306.267 757.192 306.267H722.842V288.176H757.192C759.78 288.176 761.782 287.395 763.198 285.832C764.614 284.221 765.322 282.243 765.322 279.899C765.322 277.409 764.517 275.456 762.905 274.04C761.343 272.624 759.438 271.916 757.192 271.916H722.842C720.254 271.916 718.252 272.722 716.836 274.333C715.42 275.896 714.712 277.849 714.712 280.192V306.779C714.712 309.318 715.493 311.296 717.056 312.712C718.667 314.128 720.645 314.836 722.988 314.836H757.192V333H722.842C720.205 333 717.349 332.536 714.272 331.608C711.245 330.681 708.413 329.191 705.776 327.141C703.188 325.041 701.016 322.331 699.258 319.011C697.5 315.642 696.621 311.564 696.621 306.779V280.046C696.621 277.409 697.085 274.577 698.013 271.55C698.94 268.474 700.43 265.642 702.48 263.054C704.58 260.417 707.29 258.22 710.61 256.462C713.979 254.704 718.057 253.825 722.842 253.825H757.192C759.829 253.825 762.661 254.289 765.688 255.217C768.765 256.145 771.597 257.658 774.185 259.758C776.821 261.809 779.019 264.519 780.776 267.888C782.534 271.208 783.413 275.261 783.413 280.046ZM915.688 333H896.646V280.485C896.646 277.995 895.986 276.115 894.668 274.846C893.35 273.527 891.396 272.868 888.809 272.868H864.053V333H845.01V263.273C845.01 261.955 845.254 260.734 845.742 259.611C846.23 258.439 846.914 257.438 847.793 256.608C848.672 255.729 849.697 255.046 850.869 254.558C852.041 254.069 853.286 253.825 854.604 253.825H888.955C891.592 253.825 894.424 254.289 897.451 255.217C900.479 256.145 903.359 257.634 906.094 259.685V253.825H931.875C933.682 253.825 935.586 254.045 937.588 254.484C939.59 254.875 941.567 255.51 943.521 256.389C945.522 257.268 947.427 258.415 949.233 259.831C951.04 261.198 952.627 262.883 953.994 264.885C955.361 266.838 956.46 269.108 957.29 271.696C958.12 274.284 958.535 277.214 958.535 280.485V333H939.492V280.485C939.492 277.995 938.857 276.115 937.588 274.846C936.367 273.527 934.463 272.868 931.875 272.868H914.736C915.371 275.212 915.688 277.751 915.688 280.485V333ZM995.449 237.565H976.406V220.354H995.449V237.565ZM995.449 333H976.406V253.825H995.449V333ZM1084.44 333H1065.4V280.485C1065.4 277.995 1064.74 276.115 1063.42 274.846C1062.1 273.527 1060.15 272.868 1057.56 272.868H1032.8V333H1013.76V263.273C1013.76 261.955 1014 260.734 1014.49 259.611C1014.98 258.439 1015.66 257.438 1016.54 256.608C1017.42 255.729 1018.45 255.046 1019.62 254.558C1020.79 254.069 1022.04 253.825 1023.35 253.825H1057.71C1060.34 253.825 1063.17 254.289 1066.2 255.217C1069.23 256.145 1072.11 257.634 1074.84 259.685V253.825H1100.62C1102.43 253.825 1104.34 254.045 1106.34 254.484C1108.34 254.875 1110.32 255.51 1112.27 256.389C1114.27 257.268 1116.18 258.415 1117.98 259.831C1119.79 261.198 1121.38 262.883 1122.74 264.885C1124.11 266.838 1125.21 269.108 1126.04 271.696C1126.87 274.284 1127.29 277.214 1127.29 280.485V333H1108.24V280.485C1108.24 277.995 1107.61 276.115 1106.34 274.846C1105.12 273.527 1103.21 272.868 1100.62 272.868H1083.49C1084.12 275.212 1084.44 277.751 1084.44 280.485V333Z" fill="white" fill-opacity="0.12"/>
</svg>
