<svg width="1440" height="1075" viewBox="0 0 1440 1075" fill="none" xmlns="http://www.w3.org/2000/svg">
<rect width="1440" height="1075" fill="#222222"/>
<path d="M396.987 191.092C396.987 194.852 396.499 198.245 395.522 201.272C394.595 204.251 393.35 206.888 391.787 209.183C390.225 211.478 388.394 213.431 386.294 215.042C384.194 216.653 382.021 217.972 379.775 218.997C377.529 220.022 375.234 220.779 372.891 221.268C370.596 221.756 368.423 222 366.372 222H292.91V202.957H366.372C370.034 202.957 372.866 201.883 374.868 199.734C376.919 197.586 377.944 194.705 377.944 191.092C377.944 189.334 377.676 187.723 377.139 186.258C376.602 184.793 375.82 183.523 374.795 182.449C373.818 181.375 372.598 180.545 371.133 179.959C369.717 179.373 368.13 179.08 366.372 179.08H322.573C319.497 179.08 316.177 178.543 312.612 177.469C309.048 176.346 305.728 174.563 302.651 172.122C299.624 169.681 297.085 166.482 295.034 162.527C293.032 158.572 292.031 153.738 292.031 148.025C292.031 142.312 293.032 137.503 295.034 133.597C297.085 129.642 299.624 126.443 302.651 124.002C305.728 121.512 309.048 119.729 312.612 118.655C316.177 117.532 319.497 116.971 322.573 116.971H387.393V136.014H322.573C318.96 136.014 316.128 137.112 314.077 139.31C312.075 141.507 311.074 144.412 311.074 148.025C311.074 151.688 312.075 154.593 314.077 156.741C316.128 158.841 318.96 159.891 322.573 159.891H366.372H366.519C368.569 159.939 370.742 160.232 373.037 160.77C375.332 161.258 377.603 162.039 379.849 163.113C382.144 164.188 384.316 165.555 386.367 167.215C388.418 168.826 390.225 170.779 391.787 173.074C393.398 175.369 394.668 178.006 395.596 180.984C396.523 183.963 396.987 187.332 396.987 191.092ZM496.816 195.267C496.816 198.538 496.401 201.492 495.571 204.129C494.741 206.717 493.643 209.012 492.275 211.014C490.908 212.967 489.321 214.651 487.515 216.067C485.708 217.435 483.804 218.558 481.802 219.437C479.849 220.315 477.847 220.975 475.796 221.414C473.794 221.805 471.89 222 470.083 222H435.732C433.096 222 430.215 221.536 427.09 220.608C423.965 219.681 421.06 218.167 418.374 216.067C415.737 213.919 413.516 211.16 411.709 207.791C409.951 204.373 409.072 200.198 409.072 195.267V169.485C409.072 164.603 409.951 160.477 411.709 157.107C413.516 153.689 415.737 150.931 418.374 148.831C421.06 146.683 423.965 145.145 427.09 144.217C430.215 143.289 433.096 142.825 435.732 142.825H470.083C474.966 142.825 479.116 143.704 482.534 145.462C485.952 147.22 488.711 149.441 490.811 152.127C492.91 154.764 494.424 157.645 495.352 160.77C496.328 163.895 496.816 166.8 496.816 169.485V195.267ZM477.773 169.632C477.773 166.995 477.114 165.042 475.796 163.772C474.478 162.503 472.573 161.868 470.083 161.868H435.879C433.34 161.868 431.411 162.527 430.093 163.846C428.774 165.115 428.115 166.995 428.115 169.485V195.267C428.115 197.757 428.774 199.661 430.093 200.979C431.411 202.298 433.34 202.957 435.879 202.957H470.083C472.671 202.957 474.6 202.298 475.869 200.979C477.139 199.661 477.773 197.757 477.773 195.267V169.632ZM600.381 195.267C600.381 197.073 600.161 198.978 599.722 200.979C599.331 202.981 598.696 204.983 597.817 206.985C596.938 208.938 595.791 210.818 594.375 212.625C593.008 214.432 591.323 216.043 589.321 217.459C587.368 218.826 585.098 219.925 582.51 220.755C579.922 221.585 576.992 222 573.721 222H539.37C537.563 222 535.659 221.805 533.657 221.414C531.655 220.975 529.653 220.315 527.651 219.437C525.698 218.558 523.818 217.435 522.012 216.067C520.205 214.651 518.594 212.967 517.178 211.014C515.811 209.012 514.712 206.717 513.882 204.129C513.052 201.492 512.637 198.538 512.637 195.267V109.354H531.68V195.267C531.68 197.61 532.412 199.49 533.877 200.906C535.342 202.273 537.173 202.957 539.37 202.957H573.721C576.113 202.957 577.969 202.249 579.287 200.833C580.654 199.417 581.338 197.562 581.338 195.267V169.485C581.338 167.093 580.63 165.237 579.214 163.919C577.798 162.552 575.967 161.868 573.721 161.868H539.37V142.825H573.721C575.527 142.825 577.432 143.045 579.434 143.484C581.436 143.875 583.413 144.51 585.366 145.389C587.368 146.268 589.272 147.415 591.079 148.831C592.886 150.198 594.473 151.883 595.84 153.885C597.207 155.838 598.306 158.108 599.136 160.696C599.966 163.284 600.381 166.214 600.381 169.485V195.267ZM685.928 161.868H643.081C640.493 161.868 638.54 162.527 637.222 163.846C635.903 165.115 635.244 166.995 635.244 169.485V222H616.201V169.485C616.201 166.214 616.616 163.284 617.446 160.696C618.276 158.108 619.375 155.838 620.742 153.885C622.158 151.883 623.77 150.198 625.576 148.831C627.383 147.415 629.263 146.268 631.216 145.389C633.218 144.51 635.22 143.875 637.222 143.484C639.272 143.045 641.177 142.825 642.935 142.825H685.928V161.868ZM783.413 169.046C783.413 171.683 782.949 174.539 782.021 177.615C781.094 180.643 779.58 183.475 777.48 186.111C775.43 188.699 772.72 190.872 769.351 192.63C766.03 194.388 761.978 195.267 757.192 195.267H722.842V177.176H757.192C759.78 177.176 761.782 176.395 763.198 174.832C764.614 173.221 765.322 171.243 765.322 168.899C765.322 166.409 764.517 164.456 762.905 163.04C761.343 161.624 759.438 160.916 757.192 160.916H722.842C720.254 160.916 718.252 161.722 716.836 163.333C715.42 164.896 714.712 166.849 714.712 169.192V195.779C714.712 198.318 715.493 200.296 717.056 201.712C718.667 203.128 720.645 203.836 722.988 203.836H757.192V222H722.842C720.205 222 717.349 221.536 714.272 220.608C711.245 219.681 708.413 218.191 705.776 216.141C703.188 214.041 701.016 211.331 699.258 208.011C697.5 204.642 696.621 200.564 696.621 195.779V169.046C696.621 166.409 697.085 163.577 698.013 160.55C698.94 157.474 700.43 154.642 702.48 152.054C704.58 149.417 707.29 147.22 710.61 145.462C713.979 143.704 718.057 142.825 722.842 142.825H757.192C759.829 142.825 762.661 143.289 765.688 144.217C768.765 145.145 771.597 146.658 774.185 148.758C776.821 150.809 779.019 153.519 780.776 156.888C782.534 160.208 783.413 164.261 783.413 169.046ZM915.688 222H896.646V169.485C896.646 166.995 895.986 165.115 894.668 163.846C893.35 162.527 891.396 161.868 888.809 161.868H864.053V222H845.01V152.273C845.01 150.955 845.254 149.734 845.742 148.611C846.23 147.439 846.914 146.438 847.793 145.608C848.672 144.729 849.697 144.046 850.869 143.558C852.041 143.069 853.286 142.825 854.604 142.825H888.955C891.592 142.825 894.424 143.289 897.451 144.217C900.479 145.145 903.359 146.634 906.094 148.685V142.825H931.875C933.682 142.825 935.586 143.045 937.588 143.484C939.59 143.875 941.567 144.51 943.521 145.389C945.522 146.268 947.427 147.415 949.233 148.831C951.04 150.198 952.627 151.883 953.994 153.885C955.361 155.838 956.46 158.108 957.29 160.696C958.12 163.284 958.535 166.214 958.535 169.485V222H939.492V169.485C939.492 166.995 938.857 165.115 937.588 163.846C936.367 162.527 934.463 161.868 931.875 161.868H914.736C915.371 164.212 915.688 166.751 915.688 169.485V222ZM995.449 126.565H976.406V109.354H995.449V126.565ZM995.449 222H976.406V142.825H995.449V222ZM1084.44 222H1065.4V169.485C1065.4 166.995 1064.74 165.115 1063.42 163.846C1062.1 162.527 1060.15 161.868 1057.56 161.868H1032.8V222H1013.76V152.273C1013.76 150.955 1014 149.734 1014.49 148.611C1014.98 147.439 1015.66 146.438 1016.54 145.608C1017.42 144.729 1018.45 144.046 1019.62 143.558C1020.79 143.069 1022.04 142.825 1023.35 142.825H1057.71C1060.34 142.825 1063.17 143.289 1066.2 144.217C1069.23 145.145 1072.11 146.634 1074.84 148.685V142.825H1100.62C1102.43 142.825 1104.34 143.045 1106.34 143.484C1108.34 143.875 1110.32 144.51 1112.27 145.389C1114.27 146.268 1116.18 147.415 1117.98 148.831C1119.79 150.198 1121.38 151.883 1122.74 153.885C1124.11 155.838 1125.21 158.108 1126.04 160.696C1126.87 163.284 1127.29 166.214 1127.29 169.485V222H1108.24V169.485C1108.24 166.995 1107.61 165.115 1106.34 163.846C1105.12 162.527 1103.21 161.868 1100.62 161.868H1083.49C1084.12 164.212 1084.44 166.751 1084.44 169.485V222Z" fill="white" fill-opacity="0.04"/>
</svg>
