<svg width="1440" height="1075" viewBox="0 0 1440 1075" fill="none" xmlns="http://www.w3.org/2000/svg">
<rect width="1440" height="1075" fill="#222222"/>
<path d="M495.723 160.916C495.723 165.262 495.186 169.144 494.111 172.562C493.037 175.979 491.572 179.007 489.717 181.644C487.91 184.231 485.811 186.453 483.418 188.309C481.025 190.164 478.511 191.678 475.874 192.85C473.286 194.021 470.649 194.876 467.964 195.413C465.327 195.95 462.837 196.219 460.493 196.219H417.427V177.176H460.493C462.935 176.98 465.132 176.492 467.085 175.711C469.087 174.881 470.796 173.782 472.212 172.415C473.628 171.048 474.727 169.412 475.508 167.508C476.289 165.555 476.68 163.357 476.68 160.916V152.273C476.436 149.881 475.923 147.684 475.142 145.682C474.36 143.68 473.286 141.971 471.919 140.555C470.601 139.139 468.989 138.04 467.085 137.259C465.181 136.429 462.983 136.014 460.493 136.014H417.573C415.034 136.014 413.105 136.673 411.787 137.991C410.469 139.31 409.81 141.214 409.81 143.704V222H390.767V143.704C390.767 138.821 391.646 134.671 393.403 131.253C395.21 127.835 397.432 125.076 400.068 122.977C402.754 120.877 405.659 119.363 408.784 118.436C411.909 117.459 414.79 116.971 417.427 116.971H460.493C464.79 116.971 468.647 117.532 472.065 118.655C475.483 119.729 478.486 121.194 481.074 123.05C483.711 124.856 485.933 126.956 487.739 129.349C489.595 131.741 491.108 134.256 492.28 136.893C493.501 139.48 494.38 142.117 494.917 144.803C495.454 147.439 495.723 149.93 495.723 152.273V160.916ZM578.779 161.868H535.933C533.345 161.868 531.392 162.527 530.073 163.846C528.755 165.115 528.096 166.995 528.096 169.485V222H509.053V169.485C509.053 166.214 509.468 163.284 510.298 160.696C511.128 158.108 512.227 155.838 513.594 153.885C515.01 151.883 516.621 150.198 518.428 148.831C520.234 147.415 522.114 146.268 524.067 145.389C526.069 144.51 528.071 143.875 530.073 143.484C532.124 143.045 534.028 142.825 535.786 142.825H578.779V161.868ZM677.217 195.267C677.217 198.538 676.802 201.492 675.972 204.129C675.142 206.717 674.043 209.012 672.676 211.014C671.309 212.967 669.722 214.651 667.915 216.067C666.108 217.435 664.204 218.558 662.202 219.437C660.249 220.315 658.247 220.975 656.196 221.414C654.194 221.805 652.29 222 650.483 222H616.133C613.496 222 610.615 221.536 607.49 220.608C604.365 219.681 601.46 218.167 598.774 216.067C596.138 213.919 593.916 211.16 592.109 207.791C590.352 204.373 589.473 200.198 589.473 195.267V169.485C589.473 164.603 590.352 160.477 592.109 157.107C593.916 153.689 596.138 150.931 598.774 148.831C601.46 146.683 604.365 145.145 607.49 144.217C610.615 143.289 613.496 142.825 616.133 142.825H650.483C655.366 142.825 659.517 143.704 662.935 145.462C666.353 147.22 669.111 149.441 671.211 152.127C673.311 154.764 674.824 157.645 675.752 160.77C676.729 163.895 677.217 166.8 677.217 169.485V195.267ZM658.174 169.632C658.174 166.995 657.515 165.042 656.196 163.772C654.878 162.503 652.974 161.868 650.483 161.868H616.279C613.74 161.868 611.812 162.527 610.493 163.846C609.175 165.115 608.516 166.995 608.516 169.485V195.267C608.516 197.757 609.175 199.661 610.493 200.979C611.812 202.298 613.74 202.957 616.279 202.957H650.483C653.071 202.957 655 202.298 656.27 200.979C657.539 199.661 658.174 197.757 658.174 195.267V169.632ZM712.812 126.565H693.77V109.354H712.812V126.565ZM712.812 229.617C712.812 232.889 712.397 235.818 711.567 238.406C710.737 241.043 709.639 243.338 708.271 245.291C706.904 247.293 705.317 248.978 703.511 250.345C701.704 251.761 699.8 252.908 697.798 253.787C695.845 254.666 693.867 255.301 691.865 255.691C689.863 256.131 687.959 256.351 686.152 256.351H651.802V237.308H686.152C688.691 237.308 690.596 236.648 691.865 235.33C693.135 234.012 693.77 232.107 693.77 229.617V142.825H712.812V229.617ZM816.304 169.046C816.304 171.683 815.84 174.539 814.912 177.615C813.984 180.643 812.471 183.475 810.371 186.111C808.32 188.699 805.61 190.872 802.241 192.63C798.921 194.388 794.868 195.267 790.083 195.267H755.732V177.176H790.083C792.671 177.176 794.673 176.395 796.089 174.832C797.505 173.221 798.213 171.243 798.213 168.899C798.213 166.409 797.407 164.456 795.796 163.04C794.233 161.624 792.329 160.916 790.083 160.916H755.732C753.145 160.916 751.143 161.722 749.727 163.333C748.311 164.896 747.603 166.849 747.603 169.192V195.779C747.603 198.318 748.384 200.296 749.946 201.712C751.558 203.128 753.535 203.836 755.879 203.836H790.083V222H755.732C753.096 222 750.239 221.536 747.163 220.608C744.136 219.681 741.304 218.191 738.667 216.141C736.079 214.041 733.906 211.331 732.148 208.011C730.391 204.642 729.512 200.564 729.512 195.779V169.046C729.512 166.409 729.976 163.577 730.903 160.55C731.831 157.474 733.32 154.642 735.371 152.054C737.471 149.417 740.181 147.22 743.501 145.462C746.87 143.704 750.947 142.825 755.732 142.825H790.083C792.72 142.825 795.552 143.289 798.579 144.217C801.655 145.145 804.487 146.658 807.075 148.758C809.712 150.809 811.909 153.519 813.667 156.888C815.425 160.208 816.304 164.261 816.304 169.046ZM901.118 161.868H867.866V222H848.604V161.868H823.848V142.825H848.604V116.971H867.866V142.825H901.118V161.868ZM999.482 195.267C999.482 198.538 999.067 201.492 998.237 204.129C997.407 206.717 996.309 209.012 994.941 211.014C993.574 212.967 991.987 214.651 990.181 216.067C988.374 217.435 986.47 218.558 984.468 219.437C982.515 220.315 980.513 220.975 978.462 221.414C976.46 221.805 974.556 222 972.749 222H938.398C935.762 222 932.881 221.536 929.756 220.608C926.631 219.681 923.726 218.167 921.04 216.067C918.403 213.919 916.182 211.16 914.375 207.791C912.617 204.373 911.738 200.198 911.738 195.267V169.485C911.738 164.603 912.617 160.477 914.375 157.107C916.182 153.689 918.403 150.931 921.04 148.831C923.726 146.683 926.631 145.145 929.756 144.217C932.881 143.289 935.762 142.825 938.398 142.825H972.749C977.632 142.825 981.782 143.704 985.2 145.462C988.618 147.22 991.377 149.441 993.477 152.127C995.576 154.764 997.09 157.645 998.018 160.77C998.994 163.895 999.482 166.8 999.482 169.485V195.267ZM980.439 169.632C980.439 166.995 979.78 165.042 978.462 163.772C977.144 162.503 975.239 161.868 972.749 161.868H938.545C936.006 161.868 934.077 162.527 932.759 163.846C931.44 165.115 930.781 166.995 930.781 169.485V195.267C930.781 197.757 931.44 199.661 932.759 200.979C934.077 202.298 936.006 202.957 938.545 202.957H972.749C975.337 202.957 977.266 202.298 978.535 200.979C979.805 199.661 980.439 197.757 980.439 195.267V169.632ZM1092.28 195.267C1092.28 198.538 1091.87 201.492 1091.04 204.129C1090.21 206.717 1089.11 209.012 1087.74 211.014C1086.37 212.967 1084.79 214.651 1082.98 216.067C1081.17 217.435 1079.27 218.558 1077.27 219.437C1075.31 220.315 1073.31 220.975 1071.26 221.414C1069.26 221.805 1067.35 222 1065.55 222H1013.98V202.957H1065.4C1067.99 202.957 1069.94 202.298 1071.26 200.979C1072.58 199.661 1073.24 197.757 1073.24 195.267C1072.99 190.188 1070.43 187.649 1065.55 187.649H1036.03C1031.83 187.649 1028.27 186.917 1025.34 185.452C1022.41 183.987 1020.01 182.156 1018.16 179.959C1016.35 177.762 1015.03 175.394 1014.2 172.854C1013.42 170.315 1013.03 167.947 1013.03 165.75C1013.03 161.502 1013.79 157.938 1015.3 155.057C1016.82 152.127 1018.72 149.759 1021.02 147.952C1023.31 146.146 1025.8 144.852 1028.49 144.07C1031.17 143.24 1033.69 142.825 1036.03 142.825H1082.83V161.868H1036.18C1035.2 161.868 1034.42 161.99 1033.83 162.234C1033.3 162.43 1032.88 162.723 1032.59 163.113C1032.34 163.455 1032.2 163.846 1032.15 164.285C1032.1 164.676 1032.08 165.066 1032.08 165.457C1032.12 166.238 1032.27 166.849 1032.51 167.288C1032.76 167.728 1033.05 168.045 1033.39 168.24C1033.78 168.436 1034.2 168.558 1034.64 168.606C1035.13 168.606 1035.59 168.606 1036.03 168.606H1065.55C1070.43 168.606 1074.58 169.485 1078 171.243C1081.42 173.001 1084.17 175.223 1086.27 177.908C1088.37 180.545 1089.89 183.426 1090.82 186.551C1091.79 189.676 1092.28 192.581 1092.28 195.267Z" fill="white" fill-opacity="0.04"/>
<path d="M555.32 201H547.645V175.98L534.139 199.74C533.807 200.346 533.338 200.805 532.732 201.117C532.146 201.43 531.512 201.586 530.828 201.586C530.164 201.586 529.539 201.43 528.953 201.117C528.387 200.805 527.938 200.346 527.605 199.74L514.041 175.98V201H506.424V162.24C506.424 161.361 506.678 160.58 507.186 159.896C507.713 159.213 508.396 158.754 509.236 158.52C509.646 158.422 510.057 158.393 510.467 158.432C510.877 158.451 511.268 158.539 511.639 158.695C512.029 158.832 512.381 159.037 512.693 159.311C513.006 159.564 513.27 159.877 513.484 160.248L530.828 190.395L548.172 160.248C548.621 159.506 549.236 158.979 550.018 158.666C550.818 158.354 551.648 158.305 552.508 158.52C553.328 158.754 554.002 159.213 554.529 159.896C555.057 160.58 555.32 161.361 555.32 162.24V201ZM597.186 179.818C597.186 180.873 597 182.016 596.629 183.246C596.258 184.457 595.652 185.59 594.812 186.645C593.992 187.68 592.908 188.549 591.561 189.252C590.232 189.955 588.611 190.307 586.697 190.307H572.957V183.07H586.697C587.732 183.07 588.533 182.758 589.1 182.133C589.666 181.488 589.949 180.697 589.949 179.76C589.949 178.764 589.627 177.982 588.982 177.416C588.357 176.85 587.596 176.566 586.697 176.566H572.957C571.922 176.566 571.121 176.889 570.555 177.533C569.988 178.158 569.705 178.939 569.705 179.877V190.512C569.705 191.527 570.018 192.318 570.643 192.885C571.287 193.451 572.078 193.734 573.016 193.734H586.697V201H572.957C571.902 201 570.76 200.814 569.529 200.443C568.318 200.072 567.186 199.477 566.131 198.656C565.096 197.816 564.227 196.732 563.523 195.404C562.82 194.057 562.469 192.426 562.469 190.512V179.818C562.469 178.764 562.654 177.631 563.025 176.42C563.396 175.189 563.992 174.057 564.812 173.021C565.652 171.967 566.736 171.088 568.064 170.385C569.412 169.682 571.043 169.33 572.957 169.33H586.697C587.752 169.33 588.885 169.516 590.096 169.887C591.326 170.258 592.459 170.863 593.494 171.703C594.549 172.523 595.428 173.607 596.131 174.955C596.834 176.283 597.186 177.904 597.186 179.818ZM636.941 197.162C636.941 197.709 636.844 198.217 636.648 198.686C636.453 199.154 636.18 199.564 635.828 199.916C635.496 200.248 635.096 200.512 634.627 200.707C634.178 200.902 633.689 201 633.162 201H615.936C614.998 201 613.992 200.893 612.918 200.678C611.863 200.463 610.818 200.121 609.783 199.652C608.748 199.164 607.742 198.559 606.766 197.836C605.809 197.094 604.969 196.205 604.246 195.17C603.523 194.115 602.938 192.904 602.488 191.537C602.059 190.17 601.844 188.627 601.844 186.908V169.33H609.461V186.908C609.461 187.904 609.627 188.803 609.959 189.604C610.311 190.385 610.779 191.059 611.365 191.625C611.951 192.191 612.635 192.631 613.416 192.943C614.217 193.236 615.076 193.383 615.994 193.383H629.324V169.33H636.941V197.162ZM674.705 190.307C674.705 191.615 674.539 192.797 674.207 193.852C673.875 194.887 673.436 195.805 672.889 196.605C672.342 197.387 671.707 198.061 670.984 198.627C670.262 199.174 669.5 199.623 668.699 199.975C667.918 200.326 667.117 200.59 666.297 200.766C665.496 200.922 664.734 201 664.012 201H643.387V193.383H663.953C664.988 193.383 665.77 193.119 666.297 192.592C666.824 192.064 667.088 191.303 667.088 190.307C666.99 188.275 665.965 187.26 664.012 187.26H652.205C650.525 187.26 649.1 186.967 647.928 186.381C646.756 185.795 645.799 185.062 645.057 184.184C644.334 183.305 643.807 182.357 643.475 181.342C643.162 180.326 643.006 179.379 643.006 178.5C643.006 176.801 643.309 175.375 643.914 174.223C644.52 173.051 645.281 172.104 646.199 171.381C647.117 170.658 648.113 170.141 649.188 169.828C650.262 169.496 651.268 169.33 652.205 169.33H670.926V176.947H652.264C651.873 176.947 651.561 176.996 651.326 177.094C651.111 177.172 650.945 177.289 650.828 177.445C650.73 177.582 650.672 177.738 650.652 177.914C650.633 178.07 650.623 178.227 650.623 178.383C650.643 178.695 650.701 178.939 650.799 179.115C650.896 179.291 651.014 179.418 651.15 179.496C651.307 179.574 651.473 179.623 651.648 179.643C651.844 179.643 652.029 179.643 652.205 179.643H664.012C665.965 179.643 667.625 179.994 668.992 180.697C670.359 181.4 671.463 182.289 672.303 183.363C673.143 184.418 673.748 185.57 674.119 186.82C674.51 188.07 674.705 189.232 674.705 190.307ZM734.5 190.307C734.5 191.615 734.334 192.797 734.002 193.852C733.67 194.887 733.23 195.805 732.684 196.605C732.137 197.387 731.502 198.061 730.779 198.627C730.057 199.174 729.295 199.623 728.494 199.975C727.713 200.326 726.922 200.59 726.121 200.766C725.32 200.922 724.559 201 723.836 201H710.096V193.383H723.836C724.852 193.383 725.613 193.119 726.121 192.592C726.629 192.064 726.883 191.303 726.883 190.307V180.053C726.883 178.998 726.619 178.217 726.092 177.709C725.584 177.201 724.832 176.947 723.836 176.947H710.154C709.119 176.947 708.338 177.211 707.811 177.738C707.283 178.246 707.02 178.998 707.02 179.994V210.902H699.402V179.994C699.402 178.686 699.568 177.514 699.9 176.479C700.232 175.443 700.672 174.535 701.219 173.754C701.785 172.953 702.43 172.279 703.152 171.732C703.875 171.166 704.627 170.707 705.408 170.355C706.209 170.004 707.01 169.75 707.811 169.594C708.631 169.418 709.393 169.33 710.096 169.33H723.836C725.145 169.33 726.316 169.496 727.352 169.828C728.387 170.16 729.295 170.6 730.076 171.146C730.877 171.693 731.551 172.328 732.098 173.051C732.664 173.773 733.123 174.535 733.475 175.336C733.826 176.117 734.08 176.908 734.236 177.709C734.412 178.51 734.5 179.271 734.5 179.994V190.307ZM768.719 176.947H751.58C750.545 176.947 749.764 177.211 749.236 177.738C748.709 178.246 748.445 178.998 748.445 179.994V201H740.828V179.994C740.828 178.686 740.994 177.514 741.326 176.479C741.658 175.443 742.098 174.535 742.645 173.754C743.211 172.953 743.855 172.279 744.578 171.732C745.301 171.166 746.053 170.707 746.834 170.355C747.635 170.004 748.436 169.75 749.236 169.594C750.057 169.418 750.818 169.33 751.521 169.33H768.719V176.947ZM808.094 190.307C808.094 191.615 807.928 192.797 807.596 193.852C807.264 194.887 806.824 195.805 806.277 196.605C805.73 197.387 805.096 198.061 804.373 198.627C803.65 199.174 802.889 199.623 802.088 199.975C801.307 200.326 800.506 200.59 799.686 200.766C798.885 200.922 798.123 201 797.4 201H783.66C782.605 201 781.453 200.814 780.203 200.443C778.953 200.072 777.791 199.467 776.717 198.627C775.662 197.768 774.773 196.664 774.051 195.316C773.348 193.949 772.996 192.279 772.996 190.307V179.994C772.996 178.041 773.348 176.391 774.051 175.043C774.773 173.676 775.662 172.572 776.717 171.732C777.791 170.873 778.953 170.258 780.203 169.887C781.453 169.516 782.605 169.33 783.66 169.33H797.4C799.354 169.33 801.014 169.682 802.381 170.385C803.748 171.088 804.852 171.977 805.691 173.051C806.531 174.105 807.137 175.258 807.508 176.508C807.898 177.758 808.094 178.92 808.094 179.994V190.307ZM800.477 180.053C800.477 178.998 800.213 178.217 799.686 177.709C799.158 177.201 798.396 176.947 797.4 176.947H783.719C782.703 176.947 781.932 177.211 781.404 177.738C780.877 178.246 780.613 178.998 780.613 179.994V190.307C780.613 191.303 780.877 192.064 781.404 192.592C781.932 193.119 782.703 193.383 783.719 193.383H797.4C798.436 193.383 799.207 193.119 799.715 192.592C800.223 192.064 800.477 191.303 800.477 190.307V180.053ZM822.332 162.826H814.715V155.941H822.332V162.826ZM822.332 204.047C822.332 205.355 822.166 206.527 821.834 207.562C821.502 208.617 821.062 209.535 820.516 210.316C819.969 211.117 819.334 211.791 818.611 212.338C817.889 212.904 817.127 213.363 816.326 213.715C815.545 214.066 814.754 214.32 813.953 214.477C813.152 214.652 812.391 214.74 811.668 214.74H797.928V207.123H811.668C812.684 207.123 813.445 206.859 813.953 206.332C814.461 205.805 814.715 205.043 814.715 204.047V169.33H822.332V204.047ZM863.729 179.818C863.729 180.873 863.543 182.016 863.172 183.246C862.801 184.457 862.195 185.59 861.355 186.645C860.535 187.68 859.451 188.549 858.104 189.252C856.775 189.955 855.154 190.307 853.24 190.307H839.5V183.07H853.24C854.275 183.07 855.076 182.758 855.643 182.133C856.209 181.488 856.492 180.697 856.492 179.76C856.492 178.764 856.17 177.982 855.525 177.416C854.9 176.85 854.139 176.566 853.24 176.566H839.5C838.465 176.566 837.664 176.889 837.098 177.533C836.531 178.158 836.248 178.939 836.248 179.877V190.512C836.248 191.527 836.561 192.318 837.186 192.885C837.83 193.451 838.621 193.734 839.559 193.734H853.24V201H839.5C838.445 201 837.303 200.814 836.072 200.443C834.861 200.072 833.729 199.477 832.674 198.656C831.639 197.816 830.77 196.732 830.066 195.404C829.363 194.057 829.012 192.426 829.012 190.512V179.818C829.012 178.764 829.197 177.631 829.568 176.42C829.939 175.189 830.535 174.057 831.355 173.021C832.195 171.967 833.279 171.088 834.607 170.385C835.955 169.682 837.586 169.33 839.5 169.33H853.24C854.295 169.33 855.428 169.516 856.639 169.887C857.869 170.258 859.002 170.863 860.037 171.703C861.092 172.523 861.971 173.607 862.674 174.955C863.377 176.283 863.729 177.904 863.729 179.818ZM897.654 176.947H884.354V201H876.648V176.947H866.746V169.33H876.648V158.988H884.354V169.33H897.654V176.947ZM937 190.307C937 191.615 936.834 192.797 936.502 193.852C936.17 194.887 935.73 195.805 935.184 196.605C934.637 197.387 934.002 198.061 933.279 198.627C932.557 199.174 931.795 199.623 930.994 199.975C930.213 200.326 929.412 200.59 928.592 200.766C927.791 200.922 927.029 201 926.307 201H912.566C911.512 201 910.359 200.814 909.109 200.443C907.859 200.072 906.697 199.467 905.623 198.627C904.568 197.768 903.68 196.664 902.957 195.316C902.254 193.949 901.902 192.279 901.902 190.307V179.994C901.902 178.041 902.254 176.391 902.957 175.043C903.68 173.676 904.568 172.572 905.623 171.732C906.697 170.873 907.859 170.258 909.109 169.887C910.359 169.516 911.512 169.33 912.566 169.33H926.307C928.26 169.33 929.92 169.682 931.287 170.385C932.654 171.088 933.758 171.977 934.598 173.051C935.438 174.105 936.043 175.258 936.414 176.508C936.805 177.758 937 178.92 937 179.994V190.307ZM929.383 180.053C929.383 178.998 929.119 178.217 928.592 177.709C928.064 177.201 927.303 176.947 926.307 176.947H912.625C911.609 176.947 910.838 177.211 910.311 177.738C909.783 178.246 909.52 178.998 909.52 179.994V190.307C909.52 191.303 909.783 192.064 910.311 192.592C910.838 193.119 911.609 193.383 912.625 193.383H926.307C927.342 193.383 928.113 193.119 928.621 192.592C929.129 192.064 929.383 191.303 929.383 190.307V180.053ZM974.119 190.307C974.119 191.615 973.953 192.797 973.621 193.852C973.289 194.887 972.85 195.805 972.303 196.605C971.756 197.387 971.121 198.061 970.398 198.627C969.676 199.174 968.914 199.623 968.113 199.975C967.332 200.326 966.531 200.59 965.711 200.766C964.91 200.922 964.148 201 963.426 201H942.801V193.383H963.367C964.402 193.383 965.184 193.119 965.711 192.592C966.238 192.064 966.502 191.303 966.502 190.307C966.404 188.275 965.379 187.26 963.426 187.26H951.619C949.939 187.26 948.514 186.967 947.342 186.381C946.17 185.795 945.213 185.062 944.471 184.184C943.748 183.305 943.221 182.357 942.889 181.342C942.576 180.326 942.42 179.379 942.42 178.5C942.42 176.801 942.723 175.375 943.328 174.223C943.934 173.051 944.695 172.104 945.613 171.381C946.531 170.658 947.527 170.141 948.602 169.828C949.676 169.496 950.682 169.33 951.619 169.33H970.34V176.947H951.678C951.287 176.947 950.975 176.996 950.74 177.094C950.525 177.172 950.359 177.289 950.242 177.445C950.145 177.582 950.086 177.738 950.066 177.914C950.047 178.07 950.037 178.227 950.037 178.383C950.057 178.695 950.115 178.939 950.213 179.115C950.311 179.291 950.428 179.418 950.564 179.496C950.721 179.574 950.887 179.623 951.062 179.643C951.258 179.643 951.443 179.643 951.619 179.643H963.426C965.379 179.643 967.039 179.994 968.406 180.697C969.773 181.4 970.877 182.289 971.717 183.363C972.557 184.418 973.162 185.57 973.533 186.82C973.924 188.07 974.119 189.232 974.119 190.307Z" fill="white"/>
</svg>
