<svg width="1440" height="1075" viewBox="0 0 1440 1075" fill="none" xmlns="http://www.w3.org/2000/svg">
<rect width="1440" height="1075" fill="#222222"/>
<path d="M391.474 195.267C391.474 198.538 391.059 201.492 390.229 204.129C389.398 206.717 388.3 209.012 386.933 211.014C385.565 212.967 383.979 214.651 382.172 216.067C380.365 217.435 378.461 218.558 376.459 219.437C374.506 220.315 372.504 220.975 370.453 221.414C368.451 221.805 366.547 222 364.74 222H313.178V202.957H364.594C367.182 202.957 369.135 202.298 370.453 200.979C371.771 199.661 372.431 197.757 372.431 195.267C372.187 190.188 369.623 187.649 364.74 187.649H335.224C331.024 187.649 327.46 186.917 324.53 185.452C321.601 183.987 319.208 182.156 317.353 179.959C315.546 177.762 314.228 175.394 313.397 172.854C312.616 170.315 312.226 167.947 312.226 165.75C312.226 161.502 312.982 157.938 314.496 155.057C316.01 152.127 317.914 149.759 320.209 147.952C322.504 146.146 324.994 144.852 327.68 144.07C330.365 143.24 332.88 142.825 335.224 142.825H382.025V161.868H335.37C334.394 161.868 333.612 161.99 333.026 162.234C332.489 162.43 332.074 162.723 331.781 163.113C331.537 163.455 331.391 163.846 331.342 164.285C331.293 164.676 331.269 165.066 331.269 165.457C331.317 166.238 331.464 166.849 331.708 167.288C331.952 167.728 332.245 168.045 332.587 168.24C332.978 168.436 333.393 168.558 333.832 168.606C334.32 168.606 334.784 168.606 335.224 168.606H364.74C369.623 168.606 373.773 169.485 377.191 171.243C380.609 173.001 383.368 175.223 385.468 177.908C387.567 180.545 389.081 183.426 390.009 186.551C390.985 189.676 391.474 192.581 391.474 195.267ZM491.01 195.267C491.01 198.538 490.595 201.492 489.765 204.129C488.935 206.717 487.836 209.012 486.469 211.014C485.102 212.967 483.515 214.651 481.708 216.067C479.901 217.435 477.997 218.558 475.995 219.437C474.042 220.315 472.04 220.975 469.989 221.414C467.987 221.805 466.083 222 464.276 222H429.926C427.289 222 424.408 221.536 421.283 220.608C418.158 219.681 415.253 218.167 412.567 216.067C409.931 213.919 407.709 211.16 405.902 207.791C404.145 204.373 403.266 200.198 403.266 195.267V169.485C403.266 164.603 404.145 160.477 405.902 157.107C407.709 153.689 409.931 150.931 412.567 148.831C415.253 146.683 418.158 145.145 421.283 144.217C424.408 143.289 427.289 142.825 429.926 142.825H464.276C469.159 142.825 473.31 143.704 476.728 145.462C480.146 147.22 482.904 149.441 485.004 152.127C487.104 154.764 488.617 157.645 489.545 160.77C490.521 163.895 491.01 166.8 491.01 169.485V195.267ZM471.967 169.632C471.967 166.995 471.308 165.042 469.989 163.772C468.671 162.503 466.767 161.868 464.276 161.868H430.072C427.533 161.868 425.604 162.527 424.286 163.846C422.968 165.115 422.309 166.995 422.309 169.485V195.267C422.309 197.757 422.968 199.661 424.286 200.979C425.604 202.298 427.533 202.957 430.072 202.957H464.276C466.864 202.957 468.793 202.298 470.062 200.979C471.332 199.661 471.967 197.757 471.967 195.267V169.632ZM594.574 195.267C594.574 197.073 594.354 198.978 593.915 200.979C593.524 202.981 592.89 204.983 592.011 206.985C591.132 208.938 589.984 210.818 588.568 212.625C587.201 214.432 585.517 216.043 583.515 217.459C581.562 218.826 579.291 219.925 576.703 220.755C574.115 221.585 571.186 222 567.914 222H533.563C531.757 222 529.853 221.805 527.851 221.414C525.849 220.975 523.847 220.315 521.845 219.437C519.892 218.558 518.012 217.435 516.205 216.067C514.398 214.651 512.787 212.967 511.371 211.014C510.004 209.012 508.905 206.717 508.075 204.129C507.245 201.492 506.83 198.538 506.83 195.267V109.354H525.873V195.267C525.873 197.61 526.605 199.49 528.07 200.906C529.535 202.273 531.366 202.957 533.563 202.957H567.914C570.307 202.957 572.162 202.249 573.48 200.833C574.848 199.417 575.531 197.562 575.531 195.267V169.485C575.531 167.093 574.823 165.237 573.407 163.919C571.991 162.552 570.16 161.868 567.914 161.868H533.563V142.825H567.914C569.721 142.825 571.625 143.045 573.627 143.484C575.629 143.875 577.606 144.51 579.56 145.389C581.562 146.268 583.466 147.415 585.272 148.831C587.079 150.198 588.666 151.883 590.033 153.885C591.4 155.838 592.499 158.108 593.329 160.696C594.159 163.284 594.574 166.214 594.574 169.485V195.267ZM680.121 161.868H637.274C634.687 161.868 632.733 162.527 631.415 163.846C630.097 165.115 629.438 166.995 629.438 169.485V222H610.395V169.485C610.395 166.214 610.81 163.284 611.64 160.696C612.47 158.108 613.568 155.838 614.936 153.885C616.352 151.883 617.963 150.198 619.77 148.831C621.576 147.415 623.456 146.268 625.409 145.389C627.411 144.51 629.413 143.875 631.415 143.484C633.466 143.045 635.37 142.825 637.128 142.825H680.121V161.868ZM777.606 169.046C777.606 171.683 777.143 174.539 776.215 177.615C775.287 180.643 773.773 183.475 771.674 186.111C769.623 188.699 766.913 190.872 763.544 192.63C760.224 194.388 756.171 195.267 751.386 195.267H717.035V177.176H751.386C753.974 177.176 755.976 176.395 757.392 174.832C758.808 173.221 759.516 171.243 759.516 168.899C759.516 166.409 758.71 164.456 757.099 163.04C755.536 161.624 753.632 160.916 751.386 160.916H717.035C714.447 160.916 712.445 161.722 711.029 163.333C709.613 164.896 708.905 166.849 708.905 169.192V195.779C708.905 198.318 709.687 200.296 711.249 201.712C712.86 203.128 714.838 203.836 717.182 203.836H751.386V222H717.035C714.398 222 711.542 221.536 708.466 220.608C705.438 219.681 702.606 218.191 699.97 216.141C697.382 214.041 695.209 211.331 693.451 208.011C691.693 204.642 690.814 200.564 690.814 195.779V169.046C690.814 166.409 691.278 163.577 692.206 160.55C693.134 157.474 694.623 154.642 696.674 152.054C698.773 149.417 701.483 147.22 704.804 145.462C708.173 143.704 712.25 142.825 717.035 142.825H751.386C754.022 142.825 756.854 143.289 759.882 144.217C762.958 145.145 765.79 146.658 768.378 148.758C771.015 150.809 773.212 153.519 774.97 156.888C776.728 160.208 777.606 164.261 777.606 169.046ZM909.882 222H890.839V169.485C890.839 166.995 890.18 165.115 888.861 163.846C887.543 162.527 885.59 161.868 883.002 161.868H858.246V222H839.203V152.273C839.203 150.955 839.447 149.734 839.936 148.611C840.424 147.439 841.107 146.438 841.986 145.608C842.865 144.729 843.891 144.046 845.062 143.558C846.234 143.069 847.479 142.825 848.798 142.825H883.148C885.785 142.825 888.617 143.289 891.645 144.217C894.672 145.145 897.553 146.634 900.287 148.685V142.825H926.068C927.875 142.825 929.779 143.045 931.781 143.484C933.783 143.875 935.761 144.51 937.714 145.389C939.716 146.268 941.62 147.415 943.427 148.831C945.233 150.198 946.82 151.883 948.188 153.885C949.555 155.838 950.653 158.108 951.483 160.696C952.313 163.284 952.729 166.214 952.729 169.485V222H933.686V169.485C933.686 166.995 933.051 165.115 931.781 163.846C930.561 162.527 928.656 161.868 926.068 161.868H908.93C909.564 164.212 909.882 166.751 909.882 169.485V222ZM989.643 126.565H970.6V109.354H989.643V126.565ZM989.643 222H970.6V142.825H989.643V222ZM1078.63 222H1059.59V169.485C1059.59 166.995 1058.93 165.115 1057.61 163.846C1056.29 162.527 1054.34 161.868 1051.75 161.868H1027V222H1007.95V152.273C1007.95 150.955 1008.2 149.734 1008.69 148.611C1009.17 147.439 1009.86 146.438 1010.74 145.608C1011.62 144.729 1012.64 144.046 1013.81 143.558C1014.98 143.069 1016.23 142.825 1017.55 142.825H1051.9C1054.54 142.825 1057.37 143.289 1060.39 144.217C1063.42 145.145 1066.3 146.634 1069.04 148.685V142.825H1094.82C1096.62 142.825 1098.53 143.045 1100.53 143.484C1102.53 143.875 1104.51 144.51 1106.46 145.389C1108.47 146.268 1110.37 147.415 1112.18 148.831C1113.98 150.198 1115.57 151.883 1116.94 153.885C1118.3 155.838 1119.4 158.108 1120.23 160.696C1121.06 163.284 1121.48 166.214 1121.48 169.485V222H1102.44V169.485C1102.44 166.995 1101.8 165.115 1100.53 163.846C1099.31 162.527 1097.41 161.868 1094.82 161.868H1077.68C1078.31 164.212 1078.63 166.751 1078.63 169.485V222Z" fill="white" fill-opacity="0.04"/>
<path d="M427.586 198.162C427.586 198.709 427.488 199.217 427.293 199.686C427.098 200.154 426.824 200.564 426.473 200.916C426.121 201.248 425.711 201.512 425.242 201.707C424.773 201.902 424.275 202 423.748 202H406.58C404.959 202 403.318 201.824 401.658 201.473C399.998 201.121 398.387 200.584 396.824 199.861C395.281 199.119 393.826 198.182 392.459 197.049C391.092 195.916 389.891 194.578 388.855 193.035C387.84 191.473 387.039 189.695 386.453 187.703C385.867 185.691 385.574 183.455 385.574 180.994V159.988H393.191V180.994C393.191 183.143 393.484 184.959 394.07 186.443C394.676 187.928 395.438 189.168 396.355 190.164C397.273 191.16 398.279 191.941 399.373 192.508C400.467 193.074 401.502 193.494 402.479 193.768C403.475 194.041 404.344 194.217 405.086 194.295C405.848 194.354 406.346 194.383 406.58 194.383H419.969V159.988H427.586V198.162ZM463.885 202H456.268V180.994C456.268 179.998 456.004 179.246 455.477 178.738C454.949 178.211 454.168 177.947 453.133 177.947H443.23V202H435.613V174.109C435.613 173.582 435.711 173.094 435.906 172.645C436.102 172.176 436.375 171.775 436.727 171.443C437.078 171.092 437.488 170.818 437.957 170.623C438.426 170.428 438.924 170.33 439.451 170.33H453.191C454.246 170.33 455.379 170.516 456.59 170.887C457.801 171.258 458.953 171.854 460.047 172.674V170.33H470.359C471.082 170.33 471.844 170.418 472.645 170.594C473.445 170.75 474.236 171.004 475.018 171.355C475.818 171.707 476.58 172.166 477.303 172.732C478.025 173.279 478.66 173.953 479.207 174.754C479.754 175.535 480.193 176.443 480.525 177.479C480.857 178.514 481.023 179.686 481.023 180.994V202H473.406V180.994C473.406 179.998 473.152 179.246 472.645 178.738C472.156 178.211 471.395 177.947 470.359 177.947H463.504C463.758 178.885 463.885 179.9 463.885 180.994V202ZM542.488 191.307C542.488 192.615 542.322 193.797 541.99 194.852C541.658 195.887 541.219 196.805 540.672 197.605C540.125 198.387 539.49 199.061 538.768 199.627C538.045 200.174 537.283 200.623 536.482 200.975C535.701 201.326 534.91 201.59 534.109 201.766C533.309 201.922 532.547 202 531.824 202H518.084V194.383H531.824C532.84 194.383 533.602 194.119 534.109 193.592C534.617 193.064 534.871 192.303 534.871 191.307V181.053C534.871 179.998 534.607 179.217 534.08 178.709C533.572 178.201 532.82 177.947 531.824 177.947H518.143C517.107 177.947 516.326 178.211 515.799 178.738C515.271 179.246 515.008 179.998 515.008 180.994V211.902H507.391V180.994C507.391 179.686 507.557 178.514 507.889 177.479C508.221 176.443 508.66 175.535 509.207 174.754C509.773 173.953 510.418 173.279 511.141 172.732C511.863 172.166 512.615 171.707 513.396 171.355C514.197 171.004 514.998 170.75 515.799 170.594C516.619 170.418 517.381 170.33 518.084 170.33H531.824C533.133 170.33 534.305 170.496 535.34 170.828C536.375 171.16 537.283 171.6 538.064 172.146C538.865 172.693 539.539 173.328 540.086 174.051C540.652 174.773 541.111 175.535 541.463 176.336C541.814 177.117 542.068 177.908 542.225 178.709C542.4 179.51 542.488 180.271 542.488 180.994V191.307ZM583.445 191.307C583.445 192.615 583.279 193.797 582.947 194.852C582.615 195.887 582.176 196.805 581.629 197.605C581.082 198.387 580.447 199.061 579.725 199.627C579.002 200.174 578.24 200.623 577.439 200.975C576.658 201.326 575.857 201.59 575.037 201.766C574.236 201.922 573.475 202 572.752 202H559.012C557.957 202 556.805 201.814 555.555 201.443C554.305 201.072 553.143 200.467 552.068 199.627C551.014 198.768 550.125 197.664 549.402 196.316C548.699 194.949 548.348 193.279 548.348 191.307V180.994C548.348 179.041 548.699 177.391 549.402 176.043C550.125 174.676 551.014 173.572 552.068 172.732C553.143 171.873 554.305 171.258 555.555 170.887C556.805 170.516 557.957 170.33 559.012 170.33H572.752C574.705 170.33 576.365 170.682 577.732 171.385C579.1 172.088 580.203 172.977 581.043 174.051C581.883 175.105 582.488 176.258 582.859 177.508C583.25 178.758 583.445 179.92 583.445 180.994V191.307ZM575.828 181.053C575.828 179.998 575.564 179.217 575.037 178.709C574.51 178.201 573.748 177.947 572.752 177.947H559.07C558.055 177.947 557.283 178.211 556.756 178.738C556.229 179.246 555.965 179.998 555.965 180.994V191.307C555.965 192.303 556.229 193.064 556.756 193.592C557.283 194.119 558.055 194.383 559.07 194.383H572.752C573.787 194.383 574.559 194.119 575.066 193.592C575.574 193.064 575.828 192.303 575.828 191.307V181.053ZM624.578 198.162C624.578 198.709 624.48 199.217 624.285 199.686C624.09 200.154 623.816 200.564 623.465 200.916C623.133 201.248 622.732 201.512 622.264 201.707C621.814 201.902 621.326 202 620.799 202H603.572C602.635 202 601.629 201.893 600.555 201.678C599.5 201.463 598.455 201.121 597.42 200.652C596.385 200.164 595.379 199.559 594.402 198.836C593.445 198.094 592.605 197.205 591.883 196.17C591.16 195.115 590.574 193.904 590.125 192.537C589.695 191.17 589.48 189.627 589.48 187.908V170.33H597.098V187.908C597.098 188.904 597.264 189.803 597.596 190.604C597.947 191.385 598.416 192.059 599.002 192.625C599.588 193.191 600.271 193.631 601.053 193.943C601.854 194.236 602.713 194.383 603.631 194.383H616.961V170.33H624.578V198.162ZM662.4 202H641.746C640.691 202 639.539 201.814 638.289 201.443C637.039 201.072 635.877 200.467 634.803 199.627C633.748 198.768 632.859 197.664 632.137 196.316C631.434 194.949 631.082 193.279 631.082 191.307V180.994C631.082 180.271 631.16 179.51 631.316 178.709C631.492 177.908 631.756 177.117 632.107 176.336C632.459 175.535 632.908 174.773 633.455 174.051C634.021 173.328 634.695 172.693 635.477 172.146C636.277 171.6 637.195 171.16 638.23 170.828C639.266 170.496 640.438 170.33 641.746 170.33H662.4V177.947H641.746C640.75 177.947 639.988 178.201 639.461 178.709C638.953 179.217 638.699 179.998 638.699 181.053V191.307C638.699 192.303 638.963 193.064 639.49 193.592C640.018 194.119 640.789 194.383 641.805 194.383H662.4V202ZM702.918 191.307C702.918 192.615 702.752 193.797 702.42 194.852C702.088 195.887 701.648 196.805 701.102 197.605C700.555 198.387 699.92 199.061 699.197 199.627C698.475 200.174 697.713 200.623 696.912 200.975C696.131 201.326 695.33 201.59 694.51 201.766C693.709 201.922 692.947 202 692.225 202H678.484C677.43 202 676.277 201.814 675.027 201.443C673.777 201.072 672.615 200.467 671.541 199.627C670.486 198.768 669.598 197.664 668.875 196.316C668.172 194.949 667.82 193.279 667.82 191.307V180.994C667.82 179.041 668.172 177.391 668.875 176.043C669.598 174.676 670.486 173.572 671.541 172.732C672.615 171.873 673.777 171.258 675.027 170.887C676.277 170.516 677.43 170.33 678.484 170.33H692.225C694.178 170.33 695.838 170.682 697.205 171.385C698.572 172.088 699.676 172.977 700.516 174.051C701.355 175.105 701.961 176.258 702.332 177.508C702.723 178.758 702.918 179.92 702.918 180.994V191.307ZM695.301 181.053C695.301 179.998 695.037 179.217 694.51 178.709C693.982 178.201 693.221 177.947 692.225 177.947H678.543C677.527 177.947 676.756 178.211 676.229 178.738C675.701 179.246 675.438 179.998 675.438 180.994V191.307C675.438 192.303 675.701 193.064 676.229 193.592C676.756 194.119 677.527 194.383 678.543 194.383H692.225C693.26 194.383 694.031 194.119 694.539 193.592C695.047 193.064 695.301 192.303 695.301 191.307V181.053ZM759.549 191.307C759.549 192.615 759.383 193.797 759.051 194.852C758.719 195.887 758.279 196.805 757.732 197.605C757.186 198.387 756.551 199.061 755.828 199.627C755.105 200.174 754.344 200.623 753.543 200.975C752.762 201.326 751.961 201.59 751.141 201.766C750.34 201.922 749.578 202 748.855 202H728.23V194.383H748.797C749.832 194.383 750.613 194.119 751.141 193.592C751.668 193.064 751.932 192.303 751.932 191.307C751.834 189.275 750.809 188.26 748.855 188.26H737.049C735.369 188.26 733.943 187.967 732.771 187.381C731.6 186.795 730.643 186.062 729.9 185.184C729.178 184.305 728.65 183.357 728.318 182.342C728.006 181.326 727.85 180.379 727.85 179.5C727.85 177.801 728.152 176.375 728.758 175.223C729.363 174.051 730.125 173.104 731.043 172.381C731.961 171.658 732.957 171.141 734.031 170.828C735.105 170.496 736.111 170.33 737.049 170.33H755.77V177.947H737.107C736.717 177.947 736.404 177.996 736.17 178.094C735.955 178.172 735.789 178.289 735.672 178.445C735.574 178.582 735.516 178.738 735.496 178.914C735.477 179.07 735.467 179.227 735.467 179.383C735.486 179.695 735.545 179.939 735.643 180.115C735.74 180.291 735.857 180.418 735.994 180.496C736.15 180.574 736.316 180.623 736.492 180.643C736.688 180.643 736.873 180.643 737.049 180.643H748.855C750.809 180.643 752.469 180.994 753.836 181.697C755.203 182.4 756.307 183.289 757.146 184.363C757.986 185.418 758.592 186.57 758.963 187.82C759.354 189.07 759.549 190.232 759.549 191.307ZM799.363 191.307C799.363 192.615 799.197 193.797 798.865 194.852C798.533 195.887 798.094 196.805 797.547 197.605C797 198.387 796.365 199.061 795.643 199.627C794.92 200.174 794.158 200.623 793.357 200.975C792.576 201.326 791.775 201.59 790.955 201.766C790.154 201.922 789.393 202 788.67 202H774.93C773.875 202 772.723 201.814 771.473 201.443C770.223 201.072 769.061 200.467 767.986 199.627C766.932 198.768 766.043 197.664 765.32 196.316C764.617 194.949 764.266 193.279 764.266 191.307V180.994C764.266 179.041 764.617 177.391 765.32 176.043C766.043 174.676 766.932 173.572 767.986 172.732C769.061 171.873 770.223 171.258 771.473 170.887C772.723 170.516 773.875 170.33 774.93 170.33H788.67C790.623 170.33 792.283 170.682 793.65 171.385C795.018 172.088 796.121 172.977 796.961 174.051C797.801 175.105 798.406 176.258 798.777 177.508C799.168 178.758 799.363 179.92 799.363 180.994V191.307ZM791.746 181.053C791.746 179.998 791.482 179.217 790.955 178.709C790.428 178.201 789.666 177.947 788.67 177.947H774.988C773.973 177.947 773.201 178.211 772.674 178.738C772.146 179.246 771.883 179.998 771.883 180.994V191.307C771.883 192.303 772.146 193.064 772.674 193.592C773.201 194.119 773.973 194.383 774.988 194.383H788.67C789.705 194.383 790.477 194.119 790.984 193.592C791.492 193.064 791.746 192.303 791.746 191.307V181.053ZM840.789 191.307C840.789 192.029 840.701 192.791 840.525 193.592C840.369 194.393 840.115 195.193 839.764 195.994C839.412 196.775 838.953 197.527 838.387 198.25C837.84 198.973 837.166 199.617 836.365 200.184C835.584 200.73 834.676 201.17 833.641 201.502C832.605 201.834 831.434 202 830.125 202H816.385C815.662 202 814.9 201.922 814.1 201.766C813.299 201.59 812.498 201.326 811.697 200.975C810.916 200.623 810.164 200.174 809.441 199.627C808.719 199.061 808.074 198.387 807.508 197.605C806.961 196.805 806.521 195.887 806.189 194.852C805.857 193.797 805.691 192.615 805.691 191.307V156.941H813.309V191.307C813.309 192.244 813.602 192.996 814.188 193.562C814.773 194.109 815.506 194.383 816.385 194.383H830.125C831.082 194.383 831.824 194.1 832.352 193.533C832.898 192.967 833.172 192.225 833.172 191.307V180.994C833.172 180.037 832.889 179.295 832.322 178.768C831.756 178.221 831.023 177.947 830.125 177.947H816.385V170.33H830.125C830.848 170.33 831.609 170.418 832.41 170.594C833.211 170.75 834.002 171.004 834.783 171.355C835.584 171.707 836.346 172.166 837.068 172.732C837.791 173.279 838.426 173.953 838.973 174.754C839.52 175.535 839.959 176.443 840.291 177.479C840.623 178.514 840.789 179.686 840.789 180.994V191.307ZM875.008 177.947H857.869C856.834 177.947 856.053 178.211 855.525 178.738C854.998 179.246 854.734 179.998 854.734 180.994V202H847.117V180.994C847.117 179.686 847.283 178.514 847.615 177.479C847.947 176.443 848.387 175.535 848.934 174.754C849.5 173.953 850.145 173.279 850.867 172.732C851.59 172.166 852.342 171.707 853.123 171.355C853.924 171.004 854.725 170.75 855.525 170.594C856.346 170.418 857.107 170.33 857.811 170.33H875.008V177.947ZM914.002 180.818C914.002 181.873 913.816 183.016 913.445 184.246C913.074 185.457 912.469 186.59 911.629 187.645C910.809 188.68 909.725 189.549 908.377 190.252C907.049 190.955 905.428 191.307 903.514 191.307H889.773V184.07H903.514C904.549 184.07 905.35 183.758 905.916 183.133C906.482 182.488 906.766 181.697 906.766 180.76C906.766 179.764 906.443 178.982 905.799 178.416C905.174 177.85 904.412 177.566 903.514 177.566H889.773C888.738 177.566 887.938 177.889 887.371 178.533C886.805 179.158 886.521 179.939 886.521 180.877V191.512C886.521 192.527 886.834 193.318 887.459 193.885C888.104 194.451 888.895 194.734 889.832 194.734H903.514V202H889.773C888.719 202 887.576 201.814 886.346 201.443C885.135 201.072 884.002 200.477 882.947 199.656C881.912 198.816 881.043 197.732 880.34 196.404C879.637 195.057 879.285 193.426 879.285 191.512V180.818C879.285 179.764 879.471 178.631 879.842 177.42C880.213 176.189 880.809 175.057 881.629 174.021C882.469 172.967 883.553 172.088 884.881 171.385C886.229 170.682 887.859 170.33 889.773 170.33H903.514C904.568 170.33 905.701 170.516 906.912 170.887C908.143 171.258 909.275 171.863 910.311 172.703C911.365 173.523 912.244 174.607 912.947 175.955C913.65 177.283 914.002 178.904 914.002 180.818ZM966.912 202H959.295V180.994C959.295 179.998 959.031 179.246 958.504 178.738C957.977 178.211 957.195 177.947 956.16 177.947H946.258V202H938.641V174.109C938.641 173.582 938.738 173.094 938.934 172.645C939.129 172.176 939.402 171.775 939.754 171.443C940.105 171.092 940.516 170.818 940.984 170.623C941.453 170.428 941.951 170.33 942.479 170.33H956.219C957.273 170.33 958.406 170.516 959.617 170.887C960.828 171.258 961.98 171.854 963.074 172.674V170.33H973.387C974.109 170.33 974.871 170.418 975.672 170.594C976.473 170.75 977.264 171.004 978.045 171.355C978.846 171.707 979.607 172.166 980.33 172.732C981.053 173.279 981.688 173.953 982.234 174.754C982.781 175.535 983.221 176.443 983.553 177.479C983.885 178.514 984.051 179.686 984.051 180.994V202H976.434V180.994C976.434 179.998 976.18 179.246 975.672 178.738C975.184 178.211 974.422 177.947 973.387 177.947H966.531C966.785 178.885 966.912 179.9 966.912 180.994V202ZM998.816 163.826H991.199V156.941H998.816V163.826ZM998.816 202H991.199V170.33H998.816V202ZM1034.41 202H1026.79V180.994C1026.79 179.998 1026.53 179.246 1026 178.738C1025.48 178.211 1024.7 177.947 1023.66 177.947H1013.76V202H1006.14V174.109C1006.14 173.582 1006.24 173.094 1006.43 172.645C1006.63 172.176 1006.9 171.775 1007.25 171.443C1007.61 171.092 1008.02 170.818 1008.48 170.623C1008.95 170.428 1009.45 170.33 1009.98 170.33H1023.72C1024.77 170.33 1025.91 170.516 1027.12 170.887C1028.33 171.258 1029.48 171.854 1030.57 172.674V170.33H1040.89C1041.61 170.33 1042.37 170.418 1043.17 170.594C1043.97 170.75 1044.76 171.004 1045.54 171.355C1046.35 171.707 1047.11 172.166 1047.83 172.732C1048.55 173.279 1049.19 173.953 1049.73 174.754C1050.28 175.535 1050.72 176.443 1051.05 177.479C1051.38 178.514 1051.55 179.686 1051.55 180.994V202H1043.93V180.994C1043.93 179.998 1043.68 179.246 1043.17 178.738C1042.68 178.211 1041.92 177.947 1040.89 177.947H1034.03C1034.29 178.885 1034.41 179.9 1034.41 180.994V202Z" fill="white"/>
</svg>
